<svg xmlns:mydata="http://www.w3.org/2000/svg" mydata:contrastcolor="ffecf8"
    mydata:template="Contrast" mydata:presentation="2.5" mydata:layouttype="undefined"
    mydata:specialfontid="undefined" mydata:id1="783" mydata:id2="188" mydata:companyname="A.B.A"
    mydata:companytagline="Development" version="1.1" xmlns="http://www.w3.org/2000/svg"
    xmlns:xlink="http://www.w3.org/1999/xlink" viewBox="0 35 550 400">
    <g fill="none" fill-rule="none" stroke="none" stroke-width="1" stroke-linecap="butt"
        stroke-linejoin="miter" stroke-miterlimit="10" stroke-dasharray="" stroke-dashoffset="0"
        font-family="none" font-weight="none" font-size="none" text-anchor="none"
        style="mix-blend-mode: normal">
        <g
            data-paper-data="{&quot;isGlobalGroup&quot;:true,&quot;bounds&quot;:{&quot;x&quot;:64.99999999999999,&quot;y&quot;:169.9682803976044,&quot;width&quot;:419.99999999999994,&quot;height&quot;:130.06443920816812}}">
            <g data-paper-data="{&quot;isSecondaryText&quot;:true}" fill="#ffffff"
                fill-rule="nonzero">
                <path
                    d="M256.45909,274.54548c1.56086,-1.46207 2.34129,-3.40821 2.34129,-5.8384c0,-2.4302 -0.77055,-4.38621 -2.31165,-5.86804c-1.5411,-1.48183 -3.63542,-2.22274 -6.28295,-2.22274h-4.74185v16.12229h4.68258c2.64753,0 4.75173,-0.73104 6.31259,-2.19311zM258.80038,260.73483c1.06692,0.98789 1.86216,2.14371 2.38574,3.46748c0.52358,1.32377 0.78537,2.82535 0.78537,4.50476c0,3.16123 -1.00764,5.75937 -3.02293,7.79442c-1.0274,1.0274 -2.2425,1.78807 -3.6453,2.28202c-1.4028,0.49394 -2.98341,0.74091 -4.74185,0.74091h-8.15006v-21.69397h7.9426c1.75844,0 3.33905,0.23709 4.74185,0.71128c1.4028,0.47419 2.63765,1.20522 3.70457,2.19311z"
                    data-paper-data="{&quot;glyphName&quot;:&quot;D&quot;,&quot;glyphIndex&quot;:0,&quot;firstGlyphOfWord&quot;:true,&quot;word&quot;:1}"></path>
                <path
                    d="M274.90292,270.04072h6.66823c-0.09879,-0.33588 -0.22227,-0.68164 -0.37046,-1.03728c-0.14818,-0.35564 -0.32106,-0.63225 -0.51864,-0.82982c-0.55322,-0.55322 -1.32377,-0.82982 -2.31165,-0.82982c-1.18546,0 -2.12395,0.43467 -2.81547,1.30401c-0.11855,0.15806 -0.23215,0.3754 -0.34082,0.652c-0.10867,0.27661 -0.2124,0.52358 -0.31118,0.74091zM274.45837,272.38201c0.03952,1.28425 0.48406,2.34129 1.33365,3.17111c0.90885,0.90885 2.03504,1.36328 3.37857,1.36328c0.98789,0 1.83747,-0.20746 2.54875,-0.62237c0.21733,-0.11855 0.42479,-0.23709 0.62237,-0.35564c0.19758,-0.11855 0.40503,-0.26179 0.62237,-0.42973c0.21733,-0.16794 0.46431,-0.3754 0.74091,-0.62237c0.27661,-0.24697 0.61249,-0.54828 1.00764,-0.90392v3.6453c-0.86934,0.67176 -1.74856,1.20028 -2.63765,1.58556c-0.8891,0.38528 -1.89674,0.57791 -3.02293,0.57791c-2.21286,0 -4.03057,-0.74091 -5.45313,-2.22274c-1.42256,-1.48183 -2.13383,-3.35881 -2.13383,-5.63095c0,-1.00764 0.15806,-1.95601 0.47419,-2.84511c0.31612,-0.8891 0.80019,-1.69916 1.45219,-2.4302c1.30401,-1.46207 2.95378,-2.19311 4.94931,-2.19311c1.95601,0 3.55639,0.68164 4.80112,2.04492c0.63225,0.69152 1.09655,1.49665 1.39292,2.41538c0.29637,0.91873 0.44455,2.06962 0.44455,3.45266z"
                    data-paper-data="{&quot;glyphName&quot;:&quot;e&quot;,&quot;glyphIndex&quot;:1,&quot;word&quot;:1}"></path>
                <path
                    d="M303.63064,264.73577h2.99329l-6.34223,15.05538h-1.83747l-6.7275,-15.05538h3.0822l4.50476,10.10607z"
                    data-paper-data="{&quot;glyphName&quot;:&quot;v&quot;,&quot;glyphIndex&quot;:2,&quot;word&quot;:1}"></path>
                <path
                    d="M316.79915,270.04072h6.66823c-0.09879,-0.33588 -0.22227,-0.68164 -0.37046,-1.03728c-0.14818,-0.35564 -0.32106,-0.63225 -0.51864,-0.82982c-0.55322,-0.55322 -1.32377,-0.82982 -2.31165,-0.82982c-1.18546,0 -2.12395,0.43467 -2.81547,1.30401c-0.11855,0.15806 -0.23215,0.3754 -0.34082,0.652c-0.10867,0.27661 -0.2124,0.52358 -0.31118,0.74091zM316.3546,272.38201c0.03952,1.28425 0.48406,2.34129 1.33365,3.17111c0.90885,0.90885 2.03504,1.36328 3.37857,1.36328c0.98789,0 1.83747,-0.20746 2.54875,-0.62237c0.21733,-0.11855 0.42479,-0.23709 0.62237,-0.35564c0.19758,-0.11855 0.40503,-0.26179 0.62237,-0.42973c0.21733,-0.16794 0.46431,-0.3754 0.74091,-0.62237c0.27661,-0.24697 0.61249,-0.54828 1.00764,-0.90392v3.6453c-0.86934,0.67176 -1.74856,1.20028 -2.63765,1.58556c-0.8891,0.38528 -1.89674,0.57791 -3.02293,0.57791c-2.21286,0 -4.03057,-0.74091 -5.45313,-2.22274c-1.42256,-1.48183 -2.13383,-3.35881 -2.13383,-5.63095c0,-1.00764 0.15806,-1.95601 0.47419,-2.84511c0.31612,-0.8891 0.80019,-1.69916 1.45219,-2.4302c1.30401,-1.46207 2.95378,-2.19311 4.94931,-2.19311c1.95601,0 3.55639,0.68164 4.80112,2.04492c0.63225,0.69152 1.09655,1.49665 1.39292,2.41538c0.29637,0.91873 0.44455,2.06962 0.44455,3.45266z"
                    data-paper-data="{&quot;glyphName&quot;:&quot;e&quot;,&quot;glyphIndex&quot;:3,&quot;word&quot;:1}"></path>
                <path d="M338.62155,257.83045v21.69397h-2.90438v-21.69397z"
                    data-paper-data="{&quot;glyphName&quot;:&quot;l&quot;,&quot;glyphIndex&quot;:4,&quot;word&quot;:1}"></path>
                <path
                    d="M358.45829,275.55312c0.8891,-0.90885 1.33365,-2.04492 1.33365,-3.40821c0,-1.32377 -0.44455,-2.45984 -1.33365,-3.40821c-0.90885,-0.92861 -1.97577,-1.39292 -3.20075,-1.39292c-1.24474,0 -2.31165,0.45443 -3.20075,1.36328c-0.8891,0.94837 -1.33365,2.09432 -1.33365,3.43784c0,1.30401 0.44455,2.4302 1.33365,3.37857c0.90885,0.92861 1.97577,1.39292 3.20075,1.39292c1.24474,0 2.31165,-0.45443 3.20075,-1.36328zM360.62176,266.69178c1.44231,1.50159 2.16347,3.3193 2.16347,5.45313c0,2.17335 -0.71128,3.98118 -2.13383,5.42349c-0.73104,0.75079 -1.54604,1.30895 -2.44502,1.67447c-0.89898,0.36552 -1.88192,0.54828 -2.94884,0.54828c-2.15359,0 -3.94166,-0.74091 -5.36422,-2.22274c-1.44231,-1.50159 -2.16347,-3.30942 -2.16347,-5.42349c0,-2.17335 0.71128,-3.99106 2.13383,-5.45313c0.73104,-0.75079 1.54604,-1.30895 2.44502,-1.67447c0.89898,-0.36552 1.88192,-0.54828 2.94884,-0.54828c2.15359,0 3.94166,0.74091 5.36422,2.22274z"
                    data-paper-data="{&quot;glyphName&quot;:&quot;o&quot;,&quot;glyphIndex&quot;:5,&quot;word&quot;:1}"></path>
                <path
                    d="M382.17743,275.61239c0.86934,-0.90885 1.30401,-2.06468 1.30401,-3.46748c0,-1.36328 -0.45443,-2.49935 -1.36328,-3.40821c-0.92861,-0.92861 -2.07456,-1.39292 -3.43784,-1.39292c-0.39515,0 -0.75079,0.07409 -1.06692,0.22227c-0.31612,0.14818 -0.59273,0.27167 -0.82982,0.37046c-0.17782,0.07903 -0.34082,0.14818 -0.489,0.20746c-0.14818,0.05927 -0.27167,0.10867 -0.37046,0.14818v7.91296c0.1383,0.07903 0.28649,0.14818 0.44455,0.20746c0.15806,0.05927 0.33588,0.11855 0.53346,0.17782c0.55322,0.21733 1.20522,0.326 1.95601,0.326c1.4028,0 2.50923,-0.43467 3.3193,-1.30401zM375.95375,265.35814c0.31612,-0.11855 0.76067,-0.29637 1.33365,-0.53346c0.57297,-0.23709 1.15583,-0.35564 1.74856,-0.35564c2.15359,0 3.94166,0.71128 5.36422,2.13383c1.42256,1.44231 2.13383,3.27978 2.13383,5.5124c0,1.0274 -0.17782,1.99059 -0.53346,2.88957c-0.35564,0.89898 -0.87922,1.72386 -1.57074,2.47465c-1.4028,1.5411 -3.10196,2.31165 -5.09749,2.31165c-0.84958,0 -1.63001,-0.08891 -2.34129,-0.26673c-0.19758,-0.03952 -0.38528,-0.08891 -0.56309,-0.14818c-0.17782,-0.05927 -0.34576,-0.11855 -0.50382,-0.17782v7.14241h-2.90438v-21.60506h2.93402z"
                    data-paper-data="{&quot;glyphName&quot;:&quot;p&quot;,&quot;glyphIndex&quot;:6,&quot;word&quot;:1}"></path>
                <path
                    d="M416.00264,270.75199v8.77243h-2.90438v-8.32788c0,-0.69152 -0.06915,-1.27437 -0.20746,-1.74856c-0.1383,-0.47419 -0.326,-0.86934 -0.56309,-1.18546c-0.23709,-0.29637 -0.51864,-0.52358 -0.84464,-0.68164c-0.326,-0.15806 -0.7261,-0.23709 -1.20028,-0.23709c-0.67176,0 -1.25461,0.25685 -1.74856,0.77055c-0.29637,0.29637 -0.55816,0.59273 -0.78537,0.8891c-0.22721,0.29637 -0.43961,0.60261 -0.63719,0.91873v9.60225h-2.90438v-8.32788c0,-0.69152 -0.06915,-1.27437 -0.20746,-1.74856c-0.1383,-0.47419 -0.31612,-0.86934 -0.53346,-1.18546c-0.43467,-0.61249 -1.08667,-0.91873 -1.95601,-0.91873c-0.81007,0 -1.46207,0.21733 -1.95601,0.652c-0.25685,0.21733 -0.49394,0.46431 -0.71128,0.74091c-0.21733,0.27661 -0.43467,0.57297 -0.652,0.8891v9.89861h-2.90438v-14.78865h2.87475v1.06692c0.25685,-0.25685 0.53346,-0.47419 0.82982,-0.652c0.81007,-0.45443 1.70904,-0.68164 2.69693,-0.68164h0.35564c0.86934,0 1.70904,0.25685 2.51911,0.77055c0.57297,0.3754 1.08667,0.93849 1.5411,1.68928c0.15806,-0.21733 0.33588,-0.42479 0.53346,-0.62237c0.19758,-0.19758 0.40503,-0.39515 0.62237,-0.59273c0.8891,-0.82982 2.00541,-1.24474 3.34893,-1.24474h0.35564c1.52134,0 2.74632,0.61249 3.67493,1.83747c0.90885,1.16571 1.36328,2.64753 1.36328,4.44549z"
                    data-paper-data="{&quot;glyphName&quot;:&quot;m&quot;,&quot;glyphIndex&quot;:7,&quot;word&quot;:1}"></path>
                <path
                    d="M428.84515,270.04072h6.66823c-0.09879,-0.33588 -0.22227,-0.68164 -0.37046,-1.03728c-0.14818,-0.35564 -0.32106,-0.63225 -0.51864,-0.82982c-0.55322,-0.55322 -1.32377,-0.82982 -2.31165,-0.82982c-1.18546,0 -2.12395,0.43467 -2.81547,1.30401c-0.11855,0.15806 -0.23215,0.3754 -0.34082,0.652c-0.10867,0.27661 -0.2124,0.52358 -0.31118,0.74091zM428.4006,272.38201c0.03952,1.28425 0.48406,2.34129 1.33365,3.17111c0.90885,0.90885 2.03504,1.36328 3.37857,1.36328c0.98789,0 1.83747,-0.20746 2.54875,-0.62237c0.21733,-0.11855 0.42479,-0.23709 0.62237,-0.35564c0.19758,-0.11855 0.40503,-0.26179 0.62237,-0.42973c0.21733,-0.16794 0.46431,-0.3754 0.74091,-0.62237c0.27661,-0.24697 0.61249,-0.54828 1.00764,-0.90392v3.6453c-0.86934,0.67176 -1.74856,1.20028 -2.63765,1.58556c-0.8891,0.38528 -1.89674,0.57791 -3.02293,0.57791c-2.21286,0 -4.03057,-0.74091 -5.45313,-2.22274c-1.42256,-1.48183 -2.13383,-3.35881 -2.13383,-5.63095c0,-1.00764 0.15806,-1.95601 0.47419,-2.84511c0.31612,-0.8891 0.80019,-1.69916 1.45219,-2.4302c1.30401,-1.46207 2.95378,-2.19311 4.94931,-2.19311c1.95601,0 3.55639,0.68164 4.80112,2.04492c0.63225,0.69152 1.09655,1.49665 1.39292,2.41538c0.29637,0.91873 0.44455,2.06962 0.44455,3.45266z"
                    data-paper-data="{&quot;glyphName&quot;:&quot;e&quot;,&quot;glyphIndex&quot;:8,&quot;word&quot;:1}"></path>
                <path
                    d="M460.32907,270.75199v8.77243h-2.93402v-8.32788c0,-0.69152 -0.06915,-1.27437 -0.20746,-1.74856c-0.1383,-0.47419 -0.31612,-0.86934 -0.53346,-1.18546c-0.45443,-0.61249 -1.17558,-0.91873 -2.16347,-0.91873c-0.47419,0 -0.88416,0.05433 -1.22992,0.163c-0.34576,0.10867 -0.65694,0.27167 -0.93355,0.489c-0.53346,0.45443 -1.01752,0.98789 -1.45219,1.60037v9.92825h-2.90438v-14.78865h2.90438v1.09655c0.1383,-0.1383 0.28155,-0.26179 0.42973,-0.37046c0.14818,-0.10867 0.30131,-0.2124 0.45937,-0.31118c0.81007,-0.45443 1.7288,-0.68164 2.7562,-0.68164c1.73868,0 3.15136,0.57297 4.23803,1.71892c0.53346,0.57297 0.92861,1.24474 1.18546,2.01529c0.25685,0.77055 0.38528,1.62013 0.38528,2.54875z"
                    data-paper-data="{&quot;glyphName&quot;:&quot;n&quot;,&quot;glyphIndex&quot;:9,&quot;word&quot;:1}"></path>
                <path
                    d="M478.68398,275.84949v3.02293c-0.47419,0.21733 -0.84958,0.3754 -1.12619,0.47419c-0.27661,0.09879 -0.52358,0.17782 -0.74091,0.23709c-0.47419,0.1383 -1.00764,0.20746 -1.60037,0.20746c-1.14595,0 -2.07456,-0.326 -2.78584,-0.97801c-0.39515,-0.33588 -0.67176,-0.74091 -0.82982,-1.2151c-0.15806,-0.47419 -0.23709,-0.97801 -0.23709,-1.51147v-8.71315h-3.58603v-2.63765h3.58603v-3.40821l1.51147,-1.00764h1.39292v4.41585h3.73421v2.63765h-3.73421v7.73515c0,0.53346 0.0247,0.91873 0.07409,1.15583c0.04939,0.23709 0.09385,0.3754 0.13336,0.41491c0.03952,0.03952 0.13336,0.08891 0.28155,0.14818c0.14818,0.05927 0.42973,0.08891 0.84464,0.08891c0.25685,0 0.56309,-0.04939 0.91873,-0.14818c0.17782,-0.05927 0.40009,-0.14324 0.66682,-0.25191c0.26673,-0.10867 0.76561,-0.33094 1.49665,-0.66682z"
                    data-paper-data="{&quot;glyphName&quot;:&quot;t&quot;,&quot;glyphIndex&quot;:10,&quot;lastGlyphOfWord&quot;:true,&quot;word&quot;:1}"></path>
            </g>
            <g data-paper-data="{&quot;isPrimaryText&quot;:true}" fill="#535bf2" fill-rule="nonzero">
                <path
                    d="M292.55203,234.39977v0c1.04014,2.17072 2.53251,4.12663 4.47711,5.86773c1.9446,1.7411 4.0701,2.61165 6.37649,2.61165v1.69588h-5.90165h-15.05938h-7.80103v-1.69588c1.40192,0 2.5099,-0.71227 3.32392,-2.1368c0.81402,-1.42454 0.85924,-3.10911 0.13567,-5.05371l-4.74845,-9.76824h-20.21484l-3.66309,8.68288c-0.7688,2.48728 -0.29395,4.48842 1.42454,6.0034c1.71849,1.51498 3.43697,2.27247 5.15546,2.27247v0v1.69588h-18.65463v-1.69588c1.71849,0 3.27869,-0.73488 4.68062,-2.20464c1.40192,-1.46976 2.46467,-3.04127 3.18825,-4.71453l15.26288,-36.35957l-3.52742,-7.25835l0.20351,-0.06784c4.79368,-1.31148 8.34371,-4.18316 10.6501,-8.61505v0l1.62804,3.39175v0.06784zM254.56442,222.59647v0h17.16226l-9.22556,-18.92597z"
                    data-paper-data="{&quot;glyphName&quot;:&quot;A&quot;,&quot;glyphIndex&quot;:0,&quot;firstGlyphOfWord&quot;:true,&quot;word&quot;:1}"></path>
                <path
                    d="M325.92686,237.65585v0c0,-1.89938 -0.65574,-3.50481 -1.96722,-4.81629c-1.31148,-1.31148 -2.91691,-1.96722 -4.81629,-1.96722c-1.85416,0 -3.44828,0.65574 -4.78237,1.96722c-1.33409,1.31148 -2.00113,2.91691 -2.00113,4.81629c0,1.85416 0.66704,3.43697 2.00113,4.74845c1.33409,1.31148 2.92821,1.96722 4.78237,1.96722c1.89938,0 3.50481,-0.65574 4.81629,-1.96722c1.31148,-1.31148 1.96722,-2.89429 1.96722,-4.74845z"
                    data-paper-data="{&quot;glyphName&quot;:&quot;.&quot;,&quot;glyphIndex&quot;:1,&quot;word&quot;:1}"></path>
                <path
                    d="M379.99138,214.59194v0c3.02996,1.31148 5.4155,3.36914 7.1566,6.17299c1.7411,2.80385 2.49859,6.01471 2.27247,9.63257c-0.45223,4.20577 -2.18203,7.65405 -5.18938,10.34484c-3.00735,2.69079 -6.50086,4.03618 -10.48051,4.03618h-21.5037h-13.56701h-5.08763v-1.69588c1.08536,0 2.20464,-0.68966 3.35783,-2.06897c1.1532,-1.37931 1.72979,-2.61165 1.72979,-3.69701v-42.6004c0,-1.13058 -0.5766,-2.37423 -1.72979,-3.73093c-1.1532,-1.3567 -2.27247,-2.03505 -3.35783,-2.03505v-1.69588h5.08763h13.56701h18.92597c3.88921,0 7.26965,1.33409 10.14134,4.00227c2.87168,2.66818 4.46581,6.03732 4.78237,10.10742c0,5.6077 -2.10289,9.90391 -6.30866,12.88865c0.04522,0.04522 0.06784,0.06784 0.06784,0.06784c0.04522,0 0.06784,0 0.06784,0zM352.24685,190.71401v0v22.6569h9.2934c3.02996,0 5.619,-1.10797 7.76711,-3.32392c2.14811,-2.21594 3.22216,-4.88412 3.22216,-8.00453c0,-3.12041 -1.07405,-5.78859 -3.22216,-8.00453c-2.14811,-2.21594 -4.73715,-3.32392 -7.76711,-3.32392zM364.05015,241.31894v0c1.85416,0 3.74223,-0.50876 5.66422,-1.52629c1.92199,-1.01753 3.53873,-2.40814 4.8502,-4.17185c1.31148,-1.76371 1.96722,-3.77615 1.96722,-6.03732c0,-2.35161 -0.84794,-4.42058 -2.54381,-6.2069c-1.69588,-1.78632 -3.66309,-2.83777 -5.90165,-3.15433c-2.23856,-0.31656 -4.23969,0.49746 -6.0034,2.44206c1.22103,-1.04014 2.64557,-1.56021 4.27361,-1.56021c1.89938,0 3.50481,0.65574 4.81629,1.96722c1.31148,1.31148 1.96722,2.91691 1.96722,4.81629c0,1.76371 -0.59921,3.27869 -1.79763,4.54495c-1.19842,1.26625 -2.67948,1.98983 -4.44319,2.17072c-0.04522,0 -0.06784,0 -0.06784,0c0,0 -0.02261,0 -0.06784,0c-0.04522,0 -0.09045,0 -0.13567,0c-0.09045,0 -0.18089,0 -0.27134,0c0,0 -0.02261,0 -0.06784,0v0c-1.98983,0 -3.65179,-0.63313 -4.98587,-1.89938c-1.33409,-1.26625 -2.00113,-2.87168 -2.00113,-4.81629c0.22612,-3.84398 1.59412,-6.84003 4.10402,-8.98814c2.5099,-2.14811 5.30244,-3.58395 8.37763,-4.30752c3.07519,-0.72357 5.6077,-0.85924 7.59752,-0.40701c-0.94969,-0.45223 -3.04127,-0.72357 -6.27474,-0.81402c-3.23347,-0.09045 -7.06615,1.08536 -11.49804,3.52742h-9.36123v24.42061z"
                    data-paper-data="{&quot;glyphName&quot;:&quot;&quot;,&quot;glyphIndex&quot;:2,&quot;word&quot;:1}"></path>
                <path
                    d="M411.53467,237.65585v0c0,-1.89938 -0.65574,-3.50481 -1.96722,-4.81629c-1.31148,-1.31148 -2.91691,-1.96722 -4.81629,-1.96722c-1.85416,0 -3.44828,0.65574 -4.78237,1.96722c-1.33409,1.31148 -2.00113,2.91691 -2.00113,4.81629c0,1.85416 0.66704,3.43697 2.00113,4.74845c1.33409,1.31148 2.92821,1.96722 4.78237,1.96722c1.89938,0 3.50481,-0.65574 4.81629,-1.96722c1.31148,-1.31148 1.96722,-2.89429 1.96722,-4.74845z"
                    data-paper-data="{&quot;glyphName&quot;:&quot;.&quot;,&quot;glyphIndex&quot;:3,&quot;word&quot;:1}"></path>
                <path
                    d="M474.1464,234.39977v0c1.04014,2.17072 2.53251,4.12663 4.47711,5.86773c1.9446,1.7411 4.0701,2.61165 6.37649,2.61165v1.69588h-5.90165h-15.05938h-7.80103v-1.69588c1.40192,0 2.5099,-0.71227 3.32392,-2.1368c0.81402,-1.42454 0.85924,-3.10911 0.13567,-5.05371l-4.74845,-9.76824h-20.21484l-3.66309,8.68288c-0.7688,2.48728 -0.29395,4.48842 1.42454,6.0034c1.71849,1.51498 3.43697,2.27247 5.15546,2.27247v0v1.69588h-18.65463v-1.69588c1.71849,0 3.27869,-0.73488 4.68062,-2.20464c1.40192,-1.46976 2.46467,-3.04127 3.18825,-4.71453l15.26288,-36.35957l-3.52742,-7.25835l0.20351,-0.06784c4.79368,-1.31148 8.34371,-4.18316 10.6501,-8.61505v0l1.62804,3.39175v0.06784zM436.15878,222.59647v0h17.16226l-9.22556,-18.92597z"
                    data-paper-data="{&quot;glyphName&quot;:&quot;A&quot;,&quot;glyphIndex&quot;:4,&quot;lastGlyphOfWord&quot;:true,&quot;word&quot;:1}"></path>
            </g>
            <g fill="#535bf2" data-paper-data="{&quot;fillRule&quot;:&quot;evenodd&quot;,&quot;fillRuleOriginal&quot;:&quot;evenodd&quot;,&quot;isIcon&quot;:true,&quot;iconStyle&quot;:&quot;standalone&quot;,&quot;selectedEffects&quot;:{&quot;container&quot;:&quot;&quot;,&quot;transformation&quot;:&quot;&quot;,&quot;pattern&quot;:&quot;&quot;},&quot;bounds&quot;:{&quot;x&quot;:64.99999999999999,&quot;y&quot;:169.9682803976044,&quot;width&quot;:130.06343920479128,&quot;height&quot;:130.06443920816812},&quot;iconType&quot;:&quot;icon&quot;,&quot;rawIconId&quot;:&quot;384979&quot;,&quot;isDetailed&quot;:false,&quot;suitableAsStandaloneIcon&quot;:true}"  fill-rule="evenodd">
                <g data-paper-data="{&quot;isPathIcon&quot;:true}">
                    <path
                        d="M130.03222,169.96828c-21.49907,0 -40.58494,10.49404 -52.43238,26.62009c-1.77211,2.23701 -3.32231,4.65702 -4.62022,7.23202c-5.08352,9.26303 -7.97963,19.88907 -7.97963,31.18011c0,35.85912 29.1731,65.03222 65.03222,65.03222c35.85812,0 65.03122,-29.1731 65.03122,-65.03222c0,-35.85912 -29.1731,-65.03222 -65.03122,-65.03222zM130.03222,294.2047c-31.95291,0 -58.0586,-25.44909 -59.1524,-57.14019c5.77572,16.30106 21.21407,27.99709 39.31033,27.99709c23.01708,0 41.74214,-18.91706 41.74214,-42.16914c0,-23.25208 -18.72606,-42.16914 -41.74414,-42.16914c-1.435,0 -2.85301,0.074 -4.25301,0.217c7.36602,-3.29601 15.51705,-5.14502 24.09508,-5.14502c32.64511,0 59.2042,26.55909 59.2042,59.2042c0,32.64411 -26.55809,59.2052 -59.2022,59.2052zM122.62419,205.4104c-14.03805,0 -25.45769,11.53104 -25.45769,25.70609c0,14.17405 11.41964,25.70509 25.45769,25.70509c0.159,0 0.312,-0.022 0.47,-0.025c-4.00801,1.56801 -8.35703,2.43601 -12.90404,2.43601c-19.80267,0 -35.91392,-16.30306 -35.91392,-36.34112c0,-5.86202 1.3884,-11.39904 3.83491,-16.30906c1.2486,-2.27201 2.64661,-4.45102 4.17341,-6.53202c6.58982,-8.22803 16.64866,-13.50005 27.90559,-13.50005c19.20306,0 34.93312,15.33005 35.86912,34.52812c-3.88001,-9.19803 -12.92204,-15.66805 -23.43508,-15.66805zM122.62419,250.99355c-10.82404,0 -19.63007,-8.91703 -19.63007,-19.87707c0,-10.96104 8.80603,-19.87807 19.63007,-19.87807c10.82304,0 19.62907,8.91703 19.62907,19.87807c0,10.96004 -8.80603,19.87707 -19.62907,19.87707z"></path>
                </g>
            </g>
        </g>
    </g>
</svg>